<?xml version="1.0" encoding="UTF-8" standalone="no"?>
<svg
   xmlns:dc="http://purl.org/dc/elements/1.1/"
   xmlns:cc="http://creativecommons.org/ns#"
   xmlns:rdf="http://www.w3.org/1999/02/22-rdf-syntax-ns#"
   xmlns:svg="http://www.w3.org/2000/svg"
   xmlns="http://www.w3.org/2000/svg"
   xmlns:xlink="http://www.w3.org/1999/xlink"
   xmlns:sodipodi="http://sodipodi.sourceforge.net/DTD/sodipodi-0.dtd"
   xmlns:inkscape="http://www.inkscape.org/namespaces/inkscape"
   inkscape:version="1.0 (4035a4fb49, 2020-05-01)"
   height="300"
   width="515"
   sodipodi:docname="emblebi-openstack.svg"
   version="1.1"
   viewBox="0 0 515.00001 300.00001"
   data-name="Layer 1"
   id="Layer_1">
  <metadata
     id="metadata515">
    <rdf:RDF>
      <cc:Work
         rdf:about="">
        <dc:format>image/svg+xml</dc:format>
        <dc:type
           rdf:resource="http://purl.org/dc/dcmitype/StillImage" />
        <dc:title>OpenStack_Logo_Horizontal</dc:title>
      </cc:Work>
    </rdf:RDF>
  </metadata>
  <sodipodi:namedview
     inkscape:snap-page="true"
     inkscape:current-layer="Layer_1"
     inkscape:window-maximized="1"
     inkscape:window-y="0"
     inkscape:window-x="0"
     inkscape:cy="184.27026"
     inkscape:cx="241.13337"
     inkscape:zoom="1.9390927"
     fit-margin-bottom="0"
     fit-margin-right="0"
     fit-margin-left="0"
     fit-margin-top="0"
     inkscape:snap-grids="true"
     showgrid="false"
     id="namedview513"
     inkscape:window-height="899"
     inkscape:window-width="1712"
     inkscape:pageshadow="2"
     inkscape:pageopacity="0"
     guidetolerance="10"
     gridtolerance="10"
     objecttolerance="10"
     borderopacity="1"
     bordercolor="#666666"
     pagecolor="#ffffff">
    <inkscape:grid
       originy="15"
       originx="15"
       id="grid1864"
       type="xygrid" />
  </sodipodi:namedview>
  <defs
     id="defs476">
    <style
       id="style474">.cls-1{fill:#ed1944;}.cls-2{fill:#4e4540;}</style>
  </defs>
  <title
     id="title478">OpenStack_Logo_Horizontal</title>
  <g
     transform="matrix(1.0100585,0,0,1.0100585,15,197.04286)"
     id="g533">
    <path
       class="cls-1"
       d="m 234.37,262.07 h -71 a 8.13,8.13 0 0 0 -8.11,8.11 v 19.1 h 19.7 v -3.12 a 4.4,4.4 0 0 1 4.39,-4.39 h 39.07 a 4.39,4.39 0 0 1 4.38,4.39 v 3.12 h 19.71 v -19.1 a 8.13,8.13 0 0 0 -8.14,-8.11 z"
       transform="translate(-155.23,-262.07)"
       id="path480" />
    <path
       class="cls-1"
       d="m 222.77,323.37 a 4.39,4.39 0 0 1 -4.38,4.39 h -39.07 a 4.4,4.4 0 0 1 -4.39,-4.39 v -3.12 h -19.7 v 19.1 a 8.13,8.13 0 0 0 8.11,8.11 h 71 a 8.13,8.13 0 0 0 8.11,-8.11 v -19.1 h -19.68 z"
       transform="translate(-155.23,-262.07)"
       id="path482" />
    <rect
       x="0"
       class="cls-1"
       y="32.84"
       width="19.700001"
       height="19.700001"
       id="rect484" />
    <rect
       class="cls-1"
       x="67.550003"
       y="32.84"
       width="19.700001"
       height="19.700001"
       id="rect486" />
    <path
       class="cls-2"
       d="m 635.85,321.32 a 5.55,5.55 0 1 0 -5.54,5.54 5.55,5.55 0 0 0 5.54,-5.54 z m -5.54,4.18 a 4.19,4.19 0 1 1 4.18,-4.18 4.18,4.18 0 0 1 -4.18,4.18 z"
       transform="translate(-155.23,-262.07)"
       id="path488" />
    <path
       class="cls-2"
       d="m 632.39,320.31 v 0 a 1.75,1.75 0 0 0 -0.46,-1.26 2,2 0 0 0 -1.48,-0.52 h -2 v 5.43 h 1.13 v -1.78 h 0.7 l 1,1.78 h 1.29 l -1.15,-2 a 1.66,1.66 0 0 0 0.97,-1.65 z m -1.14,0 a 0.78,0.78 0 0 1 -0.88,0.82 h -0.83 v -1.64 h 0.8 c 0.58,0 0.91,0.27 0.91,0.81 z"
       transform="translate(-155.23,-262.07)"
       id="path490" />
    <path
       class="cls-2"
       d="m 302.94,305.14 v -0.75 c 0,-13.11 -8.6,-22.63 -20.3,-22.63 -11.7,0 -20.46,9.68 -20.46,22.71 v 0.76 c 0,13.11 8.6,22.55 20.3,22.55 11.7,0 20.46,-9.61 20.46,-22.64 z M 271.62,305 v -0.51 c 0,-8.27 4.26,-14.36 10.86,-14.36 6.43,0 11,6.18 11,14.45 v 0.5 c 0,8.27 -4.26,14.45 -10.86,14.45 -6.41,-0.02 -11,-6.29 -11,-14.53 z"
       transform="translate(-155.23,-262.07)"
       id="path492" />
    <path
       class="cls-2"
       d="m 347.87,305.31 v -1.17 c 0,-14.95 -8.35,-22.38 -17.21,-22.38 -6.34,0 -10.19,3.67 -12.94,7.93 v -7.1 h -9.44 v 56.88 h 9.44 v -19.29 c 2.67,3.92 6.51,7.51 12.94,7.51 8.94,0 17.21,-7.51 17.21,-22.38 z m -30.32,-0.17 v -0.83 c 0,-8.69 4.84,-14.2 10.52,-14.2 5.68,0 10.28,5.43 10.28,14.28 v 0.75 c 0,8.86 -4.51,14.2 -10.28,14.2 -5.77,0 -10.52,-5.51 -10.52,-14.2 z"
       transform="translate(-155.23,-262.07)"
       id="path494" />
    <path
       class="cls-2"
       d="m 388.76,320.93 -4.92,-5.85 c -2.93,2.84 -6,4.68 -10.19,4.68 -5.77,0 -10.36,-4 -11.2,-11.44 h 27.73 c 0.09,-1.34 0.09,-2.68 0.09,-3.26 0,-13.28 -6.35,-23.3 -18.38,-23.3 -10.86,0 -18.87,9.52 -18.87,22.8 v 0.67 c 0,13.86 8.85,22.55 20.21,22.55 a 20.34,20.34 0 0 0 15.53,-6.85 z m -16.87,-31.24 c 5.51,0 8.69,5.1 9.19,12.11 h -18.71 c 0.63,-7.52 4.34,-12.11 9.52,-12.11 z"
       transform="translate(-155.23,-262.07)"
       id="path496" />
    <path
       class="cls-2"
       d="m 418,281.76 c -6,0 -9.6,3.42 -12.11,7.35 v -6.52 h -9.44 v 44.27 h 9.44 v -26.81 c 0,-6.1 3.42,-9.77 8.35,-9.77 4.93,0 7.94,3.42 7.94,9.6 v 27 h 9.43 V 297.21 C 431.59,287.77 426.5,281.76 418,281.76 Z"
       transform="translate(-155.23,-262.07)"
       id="path498" />
    <path
       class="cls-2"
       d="m 469.64,314.25 v -0.09 c 0,-6.93 -5.18,-10.1 -12,-13.19 -5.18,-2.34 -8.68,-3.85 -8.68,-6.77 V 294 c 0,-2.42 2.08,-4.34 5.59,-4.34 3.51,0 7.18,1.67 10.52,3.93 l 4,-6.94 a 25.29,25.29 0 0 0 -14.36,-4.76 c -8.27,0 -14.62,5 -14.62,12.95 V 295 c 0,7.26 5.51,10.27 12.11,13.11 5.26,2.25 8.69,3.67 8.69,6.85 v 0.08 c 0,2.76 -2.26,4.85 -6.18,4.85 -3.92,0 -8.19,-1.93 -12.2,-5.18 l -4.42,6.76 a 26.11,26.11 0 0 0 16.45,6.18 c 8.46,0.04 15.1,-4.72 15.1,-13.4 z"
       transform="translate(-155.23,-262.07)"
       id="path500" />
    <path
       class="cls-2"
       d="m 498.86,325.61 v -7.77 a 10.71,10.71 0 0 1 -5.09,1.25 c -3,0 -4.76,-1.42 -4.76,-4.84 V 290.69 H 499 v -8.1 h -10 v -11.94 h -9.44 v 11.94 h -4.85 l 1.56,8.1 h 3.29 v 25.48 c 0,8.6 4.93,11.36 11.44,11.36 a 16.12,16.12 0 0 0 7.86,-1.92 z"
       transform="translate(-155.23,-262.07)"
       id="path502" />
    <path
       class="cls-2"
       d="m 535,286.6 c -2.84,-2.92 -7.27,-4.51 -13,-4.51 a 31.47,31.47 0 0 0 -14.62,3.51 l 2.67,7.52 a 25.14,25.14 0 0 1 10.69,-2.68 c 6,0 9.52,3.09 9.52,9 v 1.84 a 30.13,30.13 0 0 0 -10.19,-1.75 c -9.35,0 -15.7,4.67 -15.7,14.19 v 0.42 c 0,8.61 6.18,13.53 13.53,13.53 a 14.07,14.07 0 0 0 12.28,-6.26 v 5.43 h 9.27 v -27.46 c 0,-5.51 -1.45,-9.86 -4.45,-12.78 z m -4.65,25.4 c 0,5 -4.18,8.69 -9.61,8.6 -4.09,-0.08 -7.18,-2.59 -7.18,-7 v -0.17 c 0,-4.68 3.17,-7.43 8.6,-7.43 a 21.47,21.47 0 0 1 8.19,1.58 z"
       transform="translate(-155.23,-262.07)"
       id="path504" />
    <path
       class="cls-2"
       d="m 579.57,321.09 -5.09,-6.26 c -2.59,2.59 -5.18,4.51 -9,4.51 -6.44,0 -11,-5.76 -11,-14.36 v -0.42 c 0,-8.36 4.51,-14.28 10.7,-14.28 4,0 6.59,2 8.93,4.42 l 5.26,-6.93 a 18.66,18.66 0 0 0 -14.19,-6 c -11.61,0 -20.22,9.52 -20.22,22.71 v 0.84 c 0,13.2 8.36,22.47 19.88,22.47 a 18.51,18.51 0 0 0 14.73,-6.7 z"
       transform="translate(-155.23,-262.07)"
       id="path506" />
    <polygon
       class="cls-2"
       points="453.23,41.81 446.6,48.93 455.49,64.79 466.43,64.79 "
       id="polygon508" />
    <polygon
       class="cls-2"
       points="454.82,20.52 439.7,39.98 439.7,4.48 430.27,4.48 430.27,64.79 439.7,64.79 439.7,52.01 466.01,20.52 "
       id="polygon510" />
  </g>
  <g
     transform="matrix(0.83432625,0,0,0.83432625,12.288564,14.349864)"
     id="g605">
    <circle
       fill="#6dab49"
       r="7.5"
       id="use289"
       cx="467"
       cy="28.1" />
    <circle
       fill="#6dab49"
       r="7.5"
       id="use291"
       cx="467"
       cy="48.700001" />
    <circle
       fill="#6dab49"
       r="7.5"
       id="use293"
       cx="467"
       cy="69.199997" />
    <circle
       fill="#6dab49"
       r="7.5"
       id="use295"
       cx="467"
       cy="89.699997" />
    <circle
       fill="#6dab49"
       r="7.5"
       id="use297"
       cx="467"
       cy="130.89999" />
    <circle
       fill="#6dab49"
       r="7.5"
       id="use299"
       cx="467"
       cy="151.5" />
    <circle
       fill="#6dab49"
       r="7.5"
       id="use301"
       cx="430"
       cy="48.599998" />
    <circle
       fill="#6dab49"
       r="7.5"
       id="use303"
       cx="430"
       cy="69.300003" />
    <circle
       fill="#6dab49"
       r="7.5"
       id="use305"
       cx="430"
       cy="89.699997" />
    <circle
       fill="#6dab49"
       r="7.5"
       id="use307"
       cx="430"
       cy="110.3" />
    <circle
       fill="#6dab49"
       r="7.5"
       id="use309"
       cx="430"
       cy="130.8" />
    <circle
       fill="#6dab49"
       r="7.5"
       id="use311"
       cx="449"
       cy="38.400002" />
    <circle
       fill="#6dab49"
       r="7.5"
       id="use313"
       cx="449"
       cy="59" />
    <circle
       fill="#6dab49"
       r="7.5"
       id="use315"
       cx="449"
       cy="79.5" />
    <circle
       fill="#6dab49"
       r="7.5"
       id="use317"
       cx="449"
       cy="100" />
    <circle
       fill="#6dab49"
       r="7.5"
       id="use319"
       cx="449"
       cy="120.5" />
    <circle
       fill="#6dab49"
       r="7.5"
       id="use321"
       cx="449"
       cy="141" />
    <circle
       fill="#6dab49"
       r="7.5"
       id="use323"
       cx="576.70001"
       cy="48.599998" />
    <circle
       fill="#6dab49"
       r="7.5"
       id="use325"
       cx="576.70001"
       cy="69" />
    <circle
       fill="#6dab49"
       r="7.5"
       id="use327"
       cx="576.70001"
       cy="89.699997" />
    <circle
       fill="#6dab49"
       r="7.5"
       id="use329"
       cx="576.70001"
       cy="110" />
    <circle
       fill="#6dab49"
       r="7.5"
       id="use331"
       cx="576.70001"
       cy="131" />
    <circle
       fill="#6dab49"
       r="7.5"
       id="use333"
       cx="558"
       cy="38.400002" />
    <circle
       fill="#6dab49"
       r="7.5"
       id="use335"
       cx="558"
       cy="59" />
    <circle
       fill="#6dab49"
       r="7.5"
       id="use337"
       cx="558"
       cy="79.5" />
    <circle
       fill="#6dab49"
       r="7.5"
       id="use339"
       cx="558"
       cy="100" />
    <circle
       fill="#6dab49"
       r="7.5"
       id="use341"
       cx="558"
       cy="120.5" />
    <circle
       fill="#6dab49"
       r="7.5"
       id="use343"
       cx="558"
       cy="141" />
    <circle
       fill="#6dab49"
       r="7.5"
       id="use345"
       cx="540"
       cy="28" />
    <circle
       fill="#6dab49"
       r="7.5"
       id="use347"
       cx="540"
       cy="48.700001" />
    <circle
       fill="#6dab49"
       r="7.5"
       id="use349"
       cx="540"
       cy="69" />
    <circle
       fill="#6dab49"
       r="7.5"
       id="use351"
       cx="540"
       cy="89.699997" />
    <circle
       fill="#6dab49"
       r="7.5"
       id="use353"
       cx="540"
       cy="110" />
    <circle
       fill="#6dab49"
       r="7.5"
       id="use355"
       cx="540"
       cy="131" />
    <circle
       fill="#6dab49"
       r="7.5"
       id="use357"
       cx="540"
       cy="151.5" />
    <circle
       fill="#da0f21"
       r="7.5"
       id="use359"
       cx="467"
       cy="110" />
    <circle
       fill="#6dab49"
       r="7.5"
       id="use361"
       cx="522"
       cy="18" />
    <circle
       fill="#6dab49"
       r="7.5"
       id="use363"
       cx="522"
       cy="38" />
    <circle
       fill="#6dab49"
       r="7.5"
       id="use365"
       cx="522"
       cy="59" />
    <circle
       fill="#6dab49"
       r="7.5"
       id="use367"
       cx="522"
       cy="79" />
    <circle
       fill="#6dab49"
       r="7.5"
       id="use369"
       cx="522"
       cy="100" />
    <circle
       fill="#6dab49"
       r="7.5"
       id="use371"
       cx="522"
       cy="120.5" />
    <circle
       fill="#6dab49"
       r="7.5"
       id="use373"
       cx="522"
       cy="141" />
    <circle
       fill="#6dab49"
       r="7.5"
       id="use375"
       cx="522"
       cy="161.60001" />
    <circle
       fill="#6dab49"
       r="7.5"
       id="use377"
       cx="503.5"
       cy="7.5" />
    <circle
       fill="#6dab49"
       r="7.5"
       id="use379"
       cx="503.5"
       cy="28" />
    <circle
       fill="#6dab49"
       r="7.5"
       id="use381"
       cx="503.5"
       cy="48.599998" />
    <circle
       fill="#6dab49"
       r="7.5"
       id="use383"
       cx="503.5"
       cy="69" />
    <circle
       fill="#6dab49"
       r="7.5"
       id="use385"
       cx="503.5"
       cy="90" />
    <circle
       fill="#6dab49"
       r="7.5"
       id="use387"
       cx="503.5"
       cy="110.3" />
    <circle
       fill="#6dab49"
       r="7.5"
       id="use389"
       cx="503.5"
       cy="131" />
    <circle
       fill="#6dab49"
       r="7.5"
       id="use391"
       cx="503.5"
       cy="151.39999" />
    <circle
       fill="#6dab49"
       r="7.5"
       id="use393"
       cx="485"
       cy="17.700001" />
    <circle
       fill="#6dab49"
       r="7.5"
       id="use395"
       cx="485"
       cy="38.299999" />
    <circle
       fill="#6dab49"
       r="7.5"
       id="use397"
       cx="485"
       cy="58.799999" />
    <circle
       fill="#6dab49"
       r="7.5"
       id="use399"
       cx="485"
       cy="79.400002" />
    <circle
       fill="#6dab49"
       r="7.5"
       id="use401"
       cx="485"
       cy="100" />
    <circle
       fill="#6dab49"
       r="7.5"
       id="use403"
       cx="485"
       cy="120.5" />
    <circle
       fill="#6dab49"
       r="7.5"
       id="use405"
       cx="485"
       cy="141" />
    <circle
       fill="#6dab49"
       r="7.5"
       id="use407"
       cx="485"
       cy="161.60001" />
    <circle
       fill="#6dab49"
       r="7.5"
       id="use409"
       cx="503.5"
       cy="172" />
    <path
       transform="matrix(1,0,0,-1,26.2,89.6)"
       d="M -22.8,31 H 22 V 23.3 H -14.7 V 4.5 h 34 v -7 h -34 v -21 H 22.8 V -31 h -45.6 z"
       id="E" />
    <path
       id="path412"
       transform="matrix(1,0,0,-1,86,90)"
       d="m -29.6,31 h 12 L 0.2,-21.4 17.8,31 h 12 v -62 h -8 V 21.3 L 4.2,-30.7 H -4 l -17.8,52 v -52 h -8 z" />
    <path
       transform="translate(155,90)"
       d="M -24,30.8 H 2.3 C 11.7,30.8 24,26.1 24,12.8 24,1.4 16,-1.2 12.7,-2.4 15,-3.4 21,-6.7 21,-15.6 21,-28 10,-31 2.8,-31 H -24 V 31 Z M -15.7,-5 v -19 h 15 c 3.8,0 13.4,0.2 13.4,9.4 0,9.6 -9.4,9.8 -13,9.8 H -15.7 Z M 2.5,23.7 H -15.7 V 2 H 1 c 3.6,0 14.7,0.3 14.7,10.4 0,9.7 -8,11.3 -13.2,11.2 z"
       id="B" />
    <path
       transform="translate(193,90)"
       d="M -4.2,31 H 4.2 V -31 H -4.2 Z"
       id="I" />
    <use
       height="100%"
       width="100%"
       y="0"
       x="0"
       id="use416"
       transform="matrix(0,0.87,0.64,0,151.5,-50.35)"
       xlink:href="#I" />
    <use
       height="100%"
       width="100%"
       y="0"
       x="0"
       id="use418"
       transform="matrix(0,0.75,0.4,0,210,-58)"
       xlink:href="#I" />
    <use
       height="100%"
       width="100%"
       y="0"
       x="0"
       id="use420"
       transform="translate(267.8)"
       xlink:href="#E" />
    <use
       height="100%"
       width="100%"
       y="0"
       x="0"
       id="use422"
       transform="translate(193.4)"
       xlink:href="#B" />
    <use
       height="100%"
       width="100%"
       y="0"
       x="0"
       id="use424"
       transform="translate(192)"
       xlink:href="#I" />
  </g>
  <rect
     y="0"
     x="0"
     height="300"
     width="515"
     id="rect1039"
     style="fill:#ffffff;fill-opacity:0.89999998;stroke-width:1.09549" />
</svg>
